<?xml version="1.0" encoding="utf-8"?>
<!-- Generator: Adobe Illustrator 26.0.0, SVG Export Plug-In . SVG Version: 6.00 Build 0)  -->
<svg version="1.1" id="Layer_1" xmlns="http://www.w3.org/2000/svg" xmlns:xlink="http://www.w3.org/1999/xlink" x="0px" y="0px"
	 viewBox="-223 25 512 512" style="enable-background:new -223 25 512 512;" xml:space="preserve">
<style type="text/css">
	.st0{fill:#BDC3C7;}
	.st1{fill:#FFFFFF;}
	.st2{fill:#414F6B;}
	.st3{fill:#ECF0F1;}
</style>
<circle class="st0" cx="33" cy="281.58" r="251.58"/>
<path class="st1" d="M275.54,281.03c0,18.87-2.15,37.23-6.23,54.85c-89.33,47.98-110.67,45.14-225.76,45.14
	c-74.39,0-151.51,109.06-196.01,56.33c-35.62-42.22-57.09-96.76-57.09-156.32c0-133.95,108.59-242.54,242.54-242.54
	S275.54,147.08,275.54,281.03z"/>
<path class="st0" d="M33,537c121.47,0,223.18-84.6,249.42-198.1L234.35,270L189,299l-84-118L-37,363l-50-20l-75.73,102.99
	C-115.77,501.64-45.52,537,33,537z"/>
<polygon class="st2" points="105,181 111.1,343 189,299 "/>
<polygon class="st3" points="-133.38,446.57 -87,458.57 -41.89,514.07 40.61,442.07 7.61,365.57 105,181 -37,363 -87,343 -137,411 
	"/>
<polygon class="st2" points="-87,343 -87,382 -65.89,373.07 -76.44,418.07 -21.4,343 "/>
<polygon class="st2" points="87.11,439.07 126.1,380.54 195.1,359 228.1,426.79 189,399.04 111.1,481.07 "/>
<polygon class="st2" points="70.61,287.58 33,364.07 59.85,407.57 "/>
<polygon class="st3" points="208.6,313.08 228.1,371.57 252.1,347.57 "/>
<polygon class="st0" points="-41.89,443.57 -16,407.57 -28.94,452.57 "/>
</svg>
